<svg width="39" height="39" viewBox="0 0 39 39" fill="none" xmlns="http://www.w3.org/2000/svg">
<path d="M19.5 19.5C22.3995 19.5 24.75 17.1495 24.75 14.25C24.75 11.3505 22.3995 9 19.5 9C16.6005 9 14.25 11.3505 14.25 14.25C14.25 17.1495 16.6005 19.5 19.5 19.5Z" stroke="black" stroke-width="3"/>
<path d="M29.9458 33.5C29.6674 28.4399 28.1181 24.75 19.4997 24.75C10.8815 24.75 9.33222 28.4399 9.05371 33.5" stroke="black" stroke-width="3" stroke-linecap="round"/>
<path d="M10.75 4.34119C13.324 2.8522 16.3125 2 19.5 2C29.1649 2 37 9.83501 37 19.5C37 29.1649 29.1649 37 19.5 37C9.83501 37 2 29.1649 2 19.5C2 16.3125 2.8522 13.324 4.34119 10.75" stroke="black" stroke-width="3" stroke-linecap="round"/>
</svg>
