<svg width="25" height="25" viewBox="0 0 25 25" fill="none" xmlns="http://www.w3.org/2000/svg">
<path fill-rule="evenodd" clip-rule="evenodd" d="M4.54688 2.27344C3.29062 2.27344 2.27187 3.28906 2.27187 4.54531V6.81875C2.27187 8.075 3.29062 9.09219 4.54531 9.09219H6.81875C8.07344 9.09219 9.09062 8.075 9.09062 6.81875V4.54688C9.09062 3.29219 8.075 2.275 6.81875 2.275H4.54531L4.54688 2.27344ZM0 4.54531C0.000414308 3.33968 0.479642 2.18356 1.3323 1.3312C2.18496 0.47883 3.34124 -7.11869e-08 4.54688 0L6.81875 0C8.02439 0.000414308 9.1805 0.479642 10.0329 1.3323C10.8852 2.18496 11.3641 3.34124 11.3641 4.54688V6.81875C11.3641 7.41585 11.2465 8.00711 11.018 8.55876C10.7895 9.11042 10.4545 9.61166 10.0323 10.0339C9.6101 10.4561 9.10885 10.791 8.5572 11.0195C8.00555 11.248 7.41429 11.3656 6.81719 11.3656H4.54688C3.34097 11.3656 2.18445 10.8866 1.33175 10.0339C0.479044 9.18117 0 8.02466 0 6.81875L0 4.54688V4.54531ZM18.1812 2.27344C16.9266 2.27344 15.9094 3.28906 15.9094 4.54531V6.81875C15.9094 8.075 16.925 9.09219 18.1812 9.09219H20.4547C21.7094 9.09219 22.7281 8.075 22.7281 6.81875V4.54688C22.7281 3.29219 21.7094 2.275 20.4547 2.275L18.1812 2.27344ZM13.6359 4.54531C13.6364 3.33968 14.1156 2.18356 14.9682 1.3312C15.8209 0.47883 16.9772 -7.11869e-08 18.1828 0L20.4547 0C21.6603 0.000414308 22.8164 0.479642 23.6688 1.3323C24.5212 2.18496 25 3.34124 25 4.54688V6.81875C25 8.02466 24.521 9.18117 23.6683 10.0339C22.8155 10.8866 21.659 11.3656 20.4531 11.3656H18.1812C16.9756 11.3652 15.8195 10.886 14.9671 10.0333C14.1148 9.18066 13.6359 8.02439 13.6359 6.81875V4.54688V4.54531ZM4.54688 15.9078C3.29219 15.9078 2.27344 16.925 2.27344 18.1812V20.4547C2.27344 21.7094 3.29219 22.7281 4.54688 22.7281H6.82031C8.075 22.7281 9.09219 21.7094 9.09219 20.4547V18.1812C9.09219 16.925 8.07656 15.9078 6.82031 15.9078H4.54531H4.54688ZM0 18.1812C0 16.9753 0.479044 15.8188 1.33175 14.9661C2.18445 14.1134 3.34097 13.6344 4.54688 13.6344H6.81875C8.02439 13.6348 9.1805 14.114 10.0329 14.9667C10.8852 15.8193 11.3641 16.9756 11.3641 18.1812V20.4547C11.3636 21.6603 10.8844 22.8164 10.0318 23.6688C9.1791 24.5212 8.02282 25 6.81719 25H4.54688C3.34097 25 2.18445 24.521 1.33175 23.6683C0.479044 22.8155 0 21.659 0 20.4531L0 18.1812ZM18.1812 15.9078C16.9266 15.9078 15.9094 16.925 15.9094 18.1812V20.4547C15.9094 21.7094 16.925 22.7281 18.1812 22.7281H20.4547C21.7094 22.7281 22.7281 21.7094 22.7281 20.4547V18.1812C22.7281 16.925 21.7094 15.9078 20.4547 15.9078H18.1812ZM13.6359 18.1812C13.6359 16.9753 14.115 15.8188 14.9677 14.9661C15.8204 14.1134 16.9769 13.6344 18.1828 13.6344H20.4547C21.6603 13.6348 22.8164 14.114 23.6688 14.9667C24.5212 15.8193 25 16.9756 25 18.1812V20.4547C24.9996 21.6603 24.5204 22.8164 23.6677 23.6688C22.815 24.5212 21.6588 25 20.4531 25H18.1812C16.9756 24.9996 15.8195 24.5204 14.9671 23.6677C14.1148 22.815 13.6359 21.6588 13.6359 20.4531V18.1812Z" fill="#333333"/>
</svg>
