<svg width="800" height="800" viewBox="0 0 800 800" fill="none" xmlns="http://www.w3.org/2000/svg">
<g clip-path="url(#clip0_233_6)">
<mask id="mask0_233_6" style="mask-type:luminance" maskUnits="userSpaceOnUse" x="0" y="0" width="800" height="800">
<path d="M800 0H0V800H800V0Z" fill="white"/>
</mask>
<g mask="url(#mask0_233_6)">
<path d="M606.667 800H126.667C56.6667 800 0 743.333 0 673.333V193.333C0 123.333 56.6667 66.6666 126.667 66.6666H366.667C386.667 66.6666 400 80 400 100C400 120 386.667 133.333 366.667 133.333H126.667C93.3333 133.333 66.6667 160 66.6667 193.333V670C66.6667 703.333 93.3333 730 126.667 730H603.333C636.667 730 663.333 703.333 663.333 670V433.333C663.333 413.333 676.667 400 696.667 400C716.667 400 730 413.333 730 433.333V673.333C733.333 743.333 676.667 800 606.667 800Z" fill="black"/>
<path d="M200 633.333C190 633.333 183.334 630 176.667 623.333C170 616.667 166.667 603.333 166.667 593.333L200 426.667C200 420 203.334 413.333 210 410L610 10C623.334 -3.33333 643.334 -3.33333 656.667 10L790 143.333C803.334 156.667 803.334 176.667 790 190L390 590C386.667 593.333 380 596.667 373.334 600L206.667 633.333C203.334 633.333 203.334 633.333 200 633.333ZM263.334 450L243.334 556.667L350 536.667L720 166.667L633.334 80L263.334 450Z" fill="black"/>
</g>
</g>
<defs>
<clipPath id="clip0_233_6">
<rect width="800" height="800" fill="white"/>
</clipPath>
</defs>
</svg>
