<svg width="45" height="45" viewBox="0 0 45 45" fill="none" xmlns="http://www.w3.org/2000/svg">
<path d="M5.625 13.125C5.625 8.98286 8.98286 5.625 13.125 5.625H31.875C36.0171 5.625 39.375 8.98286 39.375 13.125V31.875C39.375 36.0171 36.0171 39.375 31.875 39.375H13.125C8.98286 39.375 5.625 36.0171 5.625 31.875V13.125Z" stroke="#D9D9D9" stroke-opacity="0.77" stroke-width="3"/>
<path d="M16.875 20.625C18.9461 20.625 20.625 18.9461 20.625 16.875C20.625 14.8039 18.9461 13.125 16.875 13.125C14.8039 13.125 13.125 14.8039 13.125 16.875C13.125 18.9461 14.8039 20.625 16.875 20.625Z" stroke="#D9D9D9" stroke-opacity="0.77" stroke-width="3" stroke-linecap="round" stroke-linejoin="round"/>
<path d="M7.5 37.5L12.8884 30.7644C14.0831 29.2712 16.2213 28.9391 17.8125 30C19.4038 31.0609 21.5419 30.7288 22.7366 29.2354L25.7351 25.4874C27.0472 23.8472 29.4504 23.6046 31.0641 24.9491L39.375 31.875" stroke="#D9D9D9" stroke-opacity="0.77" stroke-width="3"/>
</svg>
