<svg width="25" height="25" viewBox="0 0 25 25" fill="none" xmlns="http://www.w3.org/2000/svg">
<path fill-rule="evenodd" clip-rule="evenodd" d="M4.5726 2.27344C3.30924 2.27344 2.28473 3.28906 2.28473 4.54531V6.81875C2.28473 8.075 3.30924 9.09219 4.57102 9.09219H20.4274C21.6892 9.09219 22.7137 8.075 22.7137 6.81875V4.54688C22.7137 3.29219 21.6892 2.275 20.4274 2.275L4.5726 2.27344ZM0 4.54531C0.000416651 3.33968 0.482355 2.18356 1.33984 1.3312C2.19732 0.47883 3.36014 -7.11869e-08 4.5726 0L20.4274 0C21.6401 0 22.8032 0.479044 23.6607 1.33175C24.5182 2.18445 25 3.34097 25 4.54688V6.81875C25 8.02466 24.5182 9.18117 23.6607 10.0339C22.8032 10.8866 21.6401 11.3656 20.4274 11.3656H4.5726C3.35987 11.3656 2.19681 10.8866 1.33928 10.0339C0.481754 9.18117 0 8.02466 0 6.81875L0 4.54688V4.54531ZM4.5726 15.9078C3.30924 15.9078 2.28473 16.925 2.28473 18.1812V20.4547C2.28473 21.7094 3.30924 22.7281 4.57102 22.7281H20.4274C21.6892 22.7281 22.7137 21.7094 22.7137 20.4547V18.1812C22.7137 16.925 21.6892 15.9078 20.4274 15.9078H4.5726ZM0 18.1812C0 16.9753 0.481754 15.8188 1.33928 14.9661C2.19681 14.1134 3.35987 13.6344 4.5726 13.6344H20.4274C21.6401 13.6344 22.8032 14.1134 23.6607 14.9661C24.5182 15.8188 25 16.9753 25 18.1812V20.4547C24.9996 21.6603 24.5176 22.8164 23.6602 23.6688C22.8027 24.5212 21.6399 25 20.4274 25H4.5726C3.35987 25 2.19681 24.521 1.33928 23.6683C0.481754 22.8155 0 21.659 0 20.4531L0 18.1812Z" fill="#333333"/>
</svg>
