<svg width="25" height="25" viewBox="0 0 25 25" fill="none" xmlns="http://www.w3.org/2000/svg">
<path fill-rule="evenodd" clip-rule="evenodd" d="M18.2683 16.6603C19.6686 14.9098 20.5058 12.6895 20.5058 10.2736C20.5058 4.62265 15.9248 0.0416689 10.2739 0.0416689C4.62298 0.0416689 0.0419922 4.62265 0.0419922 10.2736C0.0419922 15.9245 4.62298 20.5055 10.2739 20.5055C12.6898 20.5055 14.9102 19.6683 16.6606 18.268L23.1012 24.7087C23.5452 25.1527 24.2651 25.1527 24.709 24.7087C25.153 24.2647 25.153 23.5448 24.709 23.1009L18.2683 16.6603ZM10.2739 18.2431C5.87244 18.2431 2.30434 14.6751 2.30434 10.2736C2.30434 5.87212 5.87244 2.30402 10.2739 2.30402C14.6754 2.30402 18.2434 5.87212 18.2434 10.2736C18.2434 14.6751 14.6754 18.2431 10.2739 18.2431Z" fill="black"/>
</svg>
