<svg width="273" height="50" viewBox="0 0 273 50" fill="none" xmlns="http://www.w3.org/2000/svg">
<path d="M16.072 49.448C13.128 49.448 10.4827 48.936 8.136 47.912C5.832 46.8453 4.01867 45.3947 2.696 43.56C1.37333 41.6827 0.690667 39.528 0.648 37.096H6.856C7.06933 39.1867 7.92267 40.9573 9.416 42.408C10.952 43.816 13.1707 44.52 16.072 44.52C18.8453 44.52 21.0213 43.8373 22.6 42.472C24.2213 41.064 25.032 39.272 25.032 37.096C25.032 35.3893 24.5627 34.0027 23.624 32.936C22.6853 31.8693 21.512 31.0587 20.104 30.504C18.696 29.9493 16.7973 29.352 14.408 28.712C11.464 27.944 9.096 27.176 7.304 26.408C5.55467 25.64 4.04 24.4453 2.76 22.824C1.52267 21.16 0.904 18.9413 0.904 16.168C0.904 13.736 1.52267 11.5813 2.76 9.704C3.99733 7.82666 5.72533 6.376 7.944 5.352C10.2053 4.328 12.7867 3.816 15.688 3.816C19.8693 3.816 23.2827 4.86133 25.928 6.952C28.616 9.04266 30.1307 11.816 30.472 15.272H24.072C23.8587 13.5653 22.9627 12.072 21.384 10.792C19.8053 9.46933 17.7147 8.808 15.112 8.808C12.68 8.808 10.696 9.448 9.16 10.728C7.624 11.9653 6.856 13.7147 6.856 15.976C6.856 17.5973 7.304 18.92 8.2 19.944C9.13867 20.968 10.2693 21.7573 11.592 22.312C12.9573 22.824 14.856 23.4213 17.288 24.104C20.232 24.9147 22.6 25.7253 24.392 26.536C26.184 27.304 27.72 28.52 29 30.184C30.28 31.8053 30.92 34.024 30.92 36.84C30.92 39.016 30.344 41.064 29.192 42.984C28.04 44.904 26.3333 46.4613 24.072 47.656C21.8107 48.8507 19.144 49.448 16.072 49.448ZM59.0745 49L45.3145 33.512V49H39.4905V1.64H45.3145V29.48L58.8185 13.928H66.9465L50.4345 31.4L67.0105 49H59.0745ZM75.436 8.232C74.3267 8.232 73.388 7.848 72.62 7.08C71.852 6.312 71.468 5.37333 71.468 4.264C71.468 3.15466 71.852 2.216 72.62 1.448C73.388 0.679998 74.3267 0.295998 75.436 0.295998C76.5027 0.295998 77.3987 0.679998 78.124 1.448C78.892 2.216 79.276 3.15466 79.276 4.264C79.276 5.37333 78.892 6.312 78.124 7.08C77.3987 7.848 76.5027 8.232 75.436 8.232ZM78.252 13.928V49H72.428V13.928H78.252ZM94.002 1.64V49H88.178V1.64H94.002ZM109.752 1.64V49H103.928V1.64H109.752ZM161.957 4.392V9.128H142.565V24.168H158.309V28.904H142.565V49H136.741V4.392H161.957ZM174.815 1.64V49H168.991V1.64H174.815ZM200.037 49.576C196.751 49.576 193.765 48.8293 191.077 47.336C188.431 45.8427 186.341 43.7307 184.805 41C183.311 38.2267 182.565 35.0267 182.565 31.4C182.565 27.816 183.333 24.6587 184.869 21.928C186.447 19.1547 188.581 17.0427 191.269 15.592C193.957 14.0987 196.965 13.352 200.293 13.352C203.621 13.352 206.629 14.0987 209.317 15.592C212.005 17.0427 214.117 19.1333 215.653 21.864C217.231 24.5947 218.021 27.7733 218.021 31.4C218.021 35.0267 217.21 38.2267 215.589 41C214.01 43.7307 211.855 45.8427 209.125 47.336C206.394 48.8293 203.365 49.576 200.037 49.576ZM200.037 44.456C202.127 44.456 204.09 43.9653 205.925 42.984C207.759 42.0027 209.231 40.5307 210.341 38.568C211.493 36.6053 212.069 34.216 212.069 31.4C212.069 28.584 211.514 26.1947 210.405 24.232C209.295 22.2693 207.845 20.8187 206.053 19.88C204.261 18.8987 202.319 18.408 200.229 18.408C198.095 18.408 196.133 18.8987 194.341 19.88C192.591 20.8187 191.183 22.2693 190.117 24.232C189.05 26.1947 188.517 28.584 188.517 31.4C188.517 34.2587 189.029 36.6693 190.053 38.632C191.119 40.5947 192.527 42.0667 194.277 43.048C196.026 43.9867 197.946 44.456 200.037 44.456ZM272.398 13.928L261.454 49H255.438L246.99 21.16L238.542 49H232.526L221.518 13.928H227.47L235.534 43.368L244.238 13.928H250.19L258.702 43.432L266.638 13.928H272.398Z" fill="black"/>
</svg>
